# Blender v3.1.2 OBJ File: ''
# www.blender.org
mtllib triangle.mtl
o Circle_Circle.001
v 0.000000 0.000000 -1.000538
v -0.866491 0.000000 0.500269
v 0.866491 0.000000 0.500269
v 0.000000 -0.010005 -1.000538
v -0.866491 -0.010005 0.500269
v 0.866491 -0.010005 0.500269
vt 0.000000 0.000000
vt 0.000000 0.000000
vt 0.000000 0.000000
vt 0.000000 0.000000
vt 0.000000 0.000000
vt 0.000000 0.000000
vn 0.0000 1.0000 0.0000
vn 0.0000 -1.0000 0.0000
vn -0.8660 0.0000 -0.5000
vn 0.0000 0.0000 1.0000
vn 0.8660 0.0000 -0.5000
usemtl None
s off
f 2/1/1 3/2/1 1/3/1
f 5/4/2 4/5/2 6/6/2
f 2/1/3 1/3/3 4/5/3 5/4/3
f 3/2/4 2/1/4 5/4/4 6/6/4
f 1/3/5 3/2/5 6/6/5 4/5/5
