# Blender v3.1.2 OBJ File: ''
# www.blender.org
mtllib DirBed2.mtl
o Plane.015_Plane.180
v 3.025889 0.050956 1.943386
v 9.602659 0.050956 1.943386
v 3.025889 0.050956 -0.689031
v 9.602659 0.050956 -0.689031
v -9.039870 0.050956 -4.140910
v -9.154283 0.050956 1.836078
v -6.225062 0.050956 -4.165583
v -6.175557 0.050956 1.811405
v -3.365026 0.050956 3.620268
v -3.333418 0.050956 7.436423
v -0.523738 0.050956 3.595596
v -0.492129 0.050956 7.411751
v -3.404788 0.050956 -0.648757
v -3.369267 0.050956 3.639867
v -0.563464 0.050956 -0.673571
v -0.527943 0.050956 3.615053
v 3.089730 0.050956 -0.689262
v -0.599155 0.050956 -0.685366
v 3.093589 0.050956 1.922976
v -0.595296 0.050956 1.926872
v -3.226073 0.050956 -0.637060
v -6.226670 0.050956 -0.633890
v -3.222647 0.050956 1.759135
v -6.223244 0.050956 1.762305
v -9.116530 0.050956 -10.114351
v -9.141204 0.050956 -4.137363
v -6.276268 0.050956 -10.139024
v -6.226764 0.050956 -4.162035
v -0.563507 -0.009147 2.095288
v -0.563507 0.402756 2.095288
v -0.563507 -0.009147 1.927082
v -0.563507 0.402756 1.927082
v 9.599063 -0.009147 2.095288
v 9.599063 0.402756 2.095288
v 9.599063 -0.009147 1.927082
v 9.599063 0.402756 1.927082
v -0.663000 -0.009147 1.927082
v -0.663000 -0.009147 2.095288
v -0.663000 0.402756 2.095288
v -0.663000 0.402756 1.927082
v -0.496262 0.050643 7.393458
v -0.496262 0.462547 7.393458
v -0.595755 0.050643 7.393458
v -0.595755 0.462547 7.393458
v -0.597095 0.461356 7.287876
v -0.497602 0.461356 7.287876
v -0.597095 0.049452 7.287876
v -0.497602 0.049452 7.287876
v -3.337308 0.050643 7.437577
v -3.337308 0.462547 7.437577
v -3.338647 0.461356 7.331995
v -3.338647 0.049452 7.331995
v -3.242765 0.462547 7.436056
v -3.242765 0.050643 7.436056
v -3.244105 0.049452 7.330474
v -3.244105 0.461356 7.330474
v -3.396279 0.049453 1.741310
v -3.396279 0.461357 1.741310
v -3.301739 0.461357 1.739789
v -3.301739 0.049453 1.739788
v -3.300585 0.461357 1.851602
v -3.395127 0.461357 1.853124
v -3.395127 0.049453 1.853123
v -3.300585 0.049453 1.851602
v -9.150649 0.049453 1.743098
v -9.150649 0.461357 1.743098
v -9.149495 0.461357 1.854912
v -9.149495 0.049453 1.854912
v -9.042998 0.049453 1.743065
v -9.042998 0.461357 1.743065
v -9.041846 0.461357 1.854879
v -9.041846 0.049453 1.854879
v -9.150683 0.049455 -10.110653
v -9.150683 0.461359 -10.110653
v -9.043033 0.049455 -10.110687
v -9.043033 0.461359 -10.110687
v -9.150683 0.049455 -9.973502
v -9.043033 0.049455 -9.973536
v -9.043033 0.461359 -9.973536
v -9.150683 0.461359 -9.973502
v -6.278389 0.049455 -10.138069
v -6.278389 0.461359 -10.138069
v -6.278389 0.049455 -10.000918
v -6.278389 0.461359 -10.000918
v -6.340124 0.049455 -10.137459
v -6.340124 0.049455 -10.000307
v -6.340124 0.461359 -10.137459
v -6.340124 0.461359 -10.000307
v -6.162012 0.049453 -0.652353
v -6.162012 0.461357 -0.652353
v -6.223746 0.049453 -0.651742
v -6.223746 0.461357 -0.651742
v -6.162849 0.461357 -0.719675
v -6.162849 0.049453 -0.719675
v -6.224586 0.049453 -0.719064
v -6.224586 0.461357 -0.719064
v 9.529061 0.049453 -0.655172
v 9.529061 0.461357 -0.655172
v 9.528223 0.461357 -0.722494
v 9.528223 0.049453 -0.722494
v 9.614827 0.049453 -0.656240
v 9.614827 0.461357 -0.656240
v 9.613989 0.461357 -0.723562
v 9.613989 0.049453 -0.723562
v 9.515782 -0.009147 1.927082
v 9.515782 0.402756 1.927082
v 9.515782 -0.009147 2.095288
v 9.515782 0.402756 2.095288
vt 0.000000 0.000000
vt 1.000000 0.000000
vt 1.000000 1.000000
vt 0.000000 1.000000
vt 0.000000 0.000000
vt 1.000000 0.000000
vt 1.000000 1.000000
vt 0.000000 1.000000
vt 0.000000 0.000000
vt 1.000000 0.000000
vt 1.000000 1.000000
vt 0.000000 1.000000
vt 0.000000 0.000000
vt 1.000000 0.000000
vt 1.000000 1.000000
vt 0.000000 1.000000
vt 0.000000 0.000000
vt 1.000000 0.000000
vt 1.000000 1.000000
vt 0.000000 1.000000
vt 0.000000 0.000000
vt 1.000000 0.000000
vt 1.000000 1.000000
vt 0.000000 1.000000
vt 0.000000 0.000000
vt 1.000000 0.000000
vt 1.000000 1.000000
vt 0.000000 1.000000
vt 0.125000 0.500000
vt 0.125000 0.750000
vt 0.125000 0.750000
vt 0.125000 0.500000
vt 0.625000 0.500000
vt 0.875000 0.750000
vt 0.875000 0.750000
vt 0.625000 0.497951
vt 0.375000 0.500000
vt 0.625000 0.750000
vt 0.375000 0.750000
vt 0.375000 0.752049
vt 0.625000 0.752049
vt 0.625000 1.000000
vt 0.375000 1.000000
vt 0.372951 0.500000
vt 0.372951 0.750000
vt 0.627049 0.500000
vt 0.875000 0.500000
vt 0.875000 0.750000
vt 0.627049 0.750000
vt 0.375000 0.000000
vt 0.625000 0.000000
vt 0.625000 0.250000
vt 0.375000 0.250000
vt 0.625000 0.250000
vt 0.375000 0.250000
vt 0.875000 0.750000
vt 0.875000 0.750000
vt 0.875000 0.750000
vt 0.875000 0.750000
vt 0.875000 0.500000
vt 0.875000 0.750000
vt 0.375000 1.000000
vt 0.625000 1.000000
vt 0.625000 1.000000
vt 0.375000 1.000000
vt 0.375000 1.000000
vt 0.625000 1.000000
vt 0.625000 1.000000
vt 0.375000 1.000000
vt 0.125000 0.750000
vt 0.125000 0.750000
vt 0.125000 0.750000
vt 0.125000 0.750000
vt 0.375000 1.000000
vt 0.625000 1.000000
vt 0.375000 0.000000
vt 0.625000 0.000000
vt 0.625000 0.000000
vt 0.375000 0.000000
vt 0.375000 0.000000
vt 0.625000 0.000000
vt 0.125000 0.750000
vt 0.125000 0.750000
vt 0.125000 0.750000
vt 0.125000 0.750000
vt 0.875000 0.750000
vt 0.875000 0.750000
vt 0.875000 0.750000
vt 0.875000 0.750000
vt 0.875000 0.750000
vt 0.875000 0.750000
vt 0.875000 0.750000
vt 0.875000 0.750000
vt 0.375000 0.000000
vt 0.625000 0.000000
vt 0.625000 0.000000
vt 0.375000 0.000000
vt 0.375000 0.000000
vt 0.625000 0.000000
vt 0.125000 0.750000
vt 0.125000 0.750000
vt 0.125000 0.750000
vt 0.125000 0.750000
vt 0.625000 0.000000
vt 0.375000 0.000000
vt 0.125000 0.750000
vt 0.125000 0.750000
vt 0.125000 0.750000
vt 0.125000 0.750000
vt 0.625000 0.000000
vt 0.375000 0.000000
vt 0.375000 0.000000
vt 0.625000 0.000000
vt 0.625000 0.000000
vt 0.375000 0.000000
vt 0.875000 0.750000
vt 0.875000 0.750000
vt 0.875000 0.750000
vt 0.875000 0.750000
vt 0.375000 0.000000
vt 0.625000 0.000000
vt 0.125000 0.750000
vt 0.125000 0.750000
vt 0.125000 0.750000
vt 0.125000 0.750000
vt 0.375000 0.000000
vt 0.625000 0.000000
vt 0.625000 0.000000
vt 0.375000 0.000000
vt 0.375000 0.000000
vt 0.625000 0.000000
vt 0.125000 0.750000
vt 0.125000 0.750000
vt 0.125000 0.750000
vt 0.125000 0.750000
vt 0.375000 0.000000
vt 0.625000 0.000000
vt 0.875000 0.750000
vt 0.875000 0.750000
vt 0.875000 0.750000
vt 0.875000 0.750000
vt 0.375000 0.000000
vt 0.625000 0.000000
vt 0.625000 0.000000
vt 0.375000 0.000000
vt 0.375000 0.000000
vt 0.625000 0.000000
vt 0.375000 0.000000
vt 0.625000 0.000000
vt 0.125000 0.750000
vt 0.125000 0.750000
vt 0.125000 0.750000
vt 0.125000 0.750000
vt 0.875000 0.750000
vt 0.875000 0.750000
vt 0.875000 0.750000
vt 0.875000 0.750000
vt 0.375000 0.000000
vt 0.625000 0.000000
vt 0.625000 0.000000
vt 0.375000 0.000000
vt 0.375000 0.000000
vt 0.625000 0.000000
vt 0.625000 0.000000
vt 0.375000 0.000000
vt 0.875000 0.750000
vt 0.875000 0.750000
vt 0.875000 0.750000
vt 0.875000 0.750000
vt 0.125000 0.750000
vt 0.125000 0.750000
vt 0.625000 0.000000
vt 0.375000 0.000000
vt 0.875000 0.750000
vt 0.875000 0.750000
vt 0.625000 0.000000
vt 0.375000 0.000000
vt 0.375000 0.000000
vt 0.625000 0.000000
vt 0.375000 0.000000
vt 0.625000 0.000000
vt 0.625000 0.000000
vt 0.375000 0.000000
vt 0.125000 0.750000
vt 0.125000 0.750000
vt 0.375000 0.497951
vn 0.0000 1.0000 0.0000
vn 0.0000 -1.0000 -0.0000
vn 0.0000 -1.0000 0.0038
vn 0.0000 -1.0000 0.0056
vn 0.0001 0.9999 0.0114
vn 0.0020 0.9999 0.0163
vn -0.0016 1.0000 0.0031
vn 0.0000 1.0000 0.0075
vn 1.0000 0.0000 0.0030
vn 1.0000 0.0000 0.0031
vn 1.0000 0.0000 0.0000
vn 0.0000 0.0000 1.0000
vn -0.0000 -1.0000 -0.0075
vn -0.0001 -0.9999 -0.0114
vn 0.0000 1.0000 -0.0038
vn -1.0000 0.0000 0.0063
vn -1.0000 0.0000 0.0064
vn -1.0000 0.0000 0.0000
vn 0.0000 0.0000 -1.0000
vn 0.0000 0.9999 -0.0113
vn -0.0020 0.9999 -0.0123
vn 0.0022 0.9999 -0.0113
vn 0.0000 1.0000 -0.0056
vn 0.0161 0.0000 0.9999
vn 0.0164 0.0000 0.9999
vn 0.0021 -0.9999 0.0119
vn 0.0000 -0.9999 0.0113
vn -0.0018 -0.9999 0.0100
vn 0.9999 0.0000 -0.0127
vn -0.9999 0.0000 0.0127
vn -0.9999 0.0000 0.0115
vn 0.0008 -0.9999 0.0105
vn 0.0002 -0.9999 0.0113
vn -0.0024 -1.0000 0.0031
vn -0.0002 0.9999 -0.0113
vn -0.0020 0.9999 -0.0099
vn 0.0024 1.0000 -0.0031
vn -0.0161 0.0000 -0.9999
vn 0.9999 -0.0000 -0.0103
vn -0.9999 0.0000 0.0103
vn -1.0000 -0.0000 0.0052
vn 0.0003 -0.0000 1.0000
vn -0.0003 0.0000 -1.0000
vn 1.0000 -0.0000 -0.0062
vn -0.0099 0.0000 -1.0000
vn 0.0017 -1.0000 -0.0031
vn 0.0099 0.0000 1.0000
vn -0.9999 0.0000 0.0125
vn -0.9999 0.0000 0.0124
vn 0.9999 -0.0000 -0.0124
vn -0.0002 0.0000 -1.0000
vn 0.0002 -0.0000 1.0000
vn 0.9999 -0.0000 -0.0125
vn 1.0000 0.0000 -0.0032
vn 1.0000 0.0000 -0.0031
vn -0.0020 -0.9999 -0.0162
vn -1.0000 -0.0000 -0.0051
vn -0.0125 0.0000 -0.9999
g Plane.015_Plane.180_Dir
usemtl Dir
s 1
f 1/1/1 2/2/1 4/3/1 3/4/1
f 5/5/1 6/6/1 8/7/1 7/8/1
f 9/9/1 10/10/1 12/11/1 11/12/1
f 13/13/1 14/14/1 16/15/1 15/16/1
f 17/17/1 18/18/1 20/19/1 19/20/1
f 21/21/1 22/22/1 24/23/1 23/24/1
f 25/25/1 26/26/1 28/27/1 27/28/1
g Plane.015_Plane.180_balkong
usemtl balkong
f 31/29/2 29/30/3 38/31/4 37/32/2
f 36/33/5 102/34/6 98/35/7 106/36/8
f 35/37/9 36/33/10 34/38/11 33/39/11
f 107/40/12 108/41/12 30/42/12 29/43/12
f 105/44/13 35/37/14 33/39/2 107/45/2
f 106/46/8 32/47/1 30/48/15 108/49/1
f 38/50/16 39/51/17 40/52/18 37/53/18
f 32/54/19 31/55/19 37/53/19 40/52/19
f 46/56/20 45/57/21 44/58/22 42/59/20
f 30/48/15 32/47/1 40/60/1 39/61/23
f 41/62/12 42/63/12 44/64/12 43/65/12
f 54/66/24 53/67/24 50/68/25 49/69/25
f 47/70/26 48/71/27 41/72/27 43/73/28
f 48/74/29 46/75/29 42/63/29 41/62/29
f 29/43/29 30/42/29 46/75/29 48/74/29
f 38/31/4 29/30/3 48/71/27 47/70/26
f 39/51/17 38/50/16 47/76/30 45/77/30
f 30/48/15 39/61/23 45/57/21 46/56/20
f 51/78/31 52/79/31 49/80/30 50/81/30
f 55/82/32 54/83/33 49/84/33 52/85/34
f 53/86/35 56/87/36 51/88/37 50/89/35
f 62/90/1 61/91/1 59/92/1 58/93/1
f 45/77/38 47/76/38 55/94/38 56/95/38
f 44/58/22 45/57/21 56/87/36 53/86/35
f 47/70/26 43/73/28 54/83/33 55/82/32
f 43/65/24 44/64/24 53/67/24 54/66/24
f 59/96/38 60/97/38 57/98/38 58/99/38
f 78/100/2 77/101/2 73/102/2 75/103/2
f 61/104/39 64/105/39 60/97/39 59/96/39
f 64/106/2 63/107/2 57/108/2 60/109/2
f 55/82/32 52/85/34 63/107/2 64/106/2
f 56/95/39 55/94/39 64/105/39 61/104/39
f 52/79/31 51/78/31 62/110/40 63/111/40
f 51/88/37 56/87/36 61/91/1 62/90/1
f 68/112/40 67/113/40 66/114/41 65/115/41
f 71/116/1 70/117/1 66/118/1 67/119/1
f 72/120/42 71/121/42 67/113/42 68/112/42
f 69/122/2 72/123/2 68/124/2 65/125/2
f 57/108/2 63/107/2 72/123/2 69/122/2
f 63/111/42 62/110/42 71/121/42 72/120/42
f 62/90/1 58/93/1 70/117/1 71/116/1
f 58/99/43 57/98/43 69/126/43 70/127/43
f 76/128/43 75/129/43 73/130/43 74/131/43
f 86/132/2 85/133/2 81/134/2 83/135/2
f 77/136/18 80/137/18 74/131/18 73/130/18
f 80/138/1 79/139/1 76/140/1 74/141/1
f 66/118/1 70/117/1 79/139/1 80/138/1
f 65/115/41 66/114/41 80/137/18 77/136/18
f 70/127/11 69/126/11 78/142/11 79/143/11
f 69/122/2 65/125/2 77/101/2 78/100/2
f 84/144/44 83/145/44 81/146/11 82/147/11
f 85/148/45 87/149/45 82/147/45 81/146/45
f 89/150/2 94/151/2 100/152/2 97/153/46
f 87/154/1 88/155/1 84/156/1 82/157/1
f 76/140/1 79/139/1 88/155/1 87/154/1
f 79/143/47 78/142/47 86/158/47 88/159/47
f 75/129/45 76/128/45 87/149/45 85/148/45
f 78/100/2 75/103/2 85/133/2 86/132/2
f 92/160/47 91/161/47 89/162/47 90/163/47
f 96/164/48 95/165/48 91/161/48 92/160/48
f 93/166/1 96/167/1 92/168/1 90/169/1
f 95/170/2 94/151/2 89/150/2 91/171/2
f 86/132/2 83/135/2 94/151/2 95/170/2
f 84/156/1 88/155/1 96/167/1 93/166/1
f 88/159/49 86/158/49 95/165/48 96/164/48
f 83/145/44 84/144/44 93/172/50 94/173/50
f 99/174/1 98/35/7 102/34/6 103/175/1
f 93/166/1 90/169/1 98/35/7 99/174/1
f 94/173/51 93/172/51 99/176/51 100/177/51
f 90/163/52 89/162/52 97/178/52 98/179/52
f 104/180/53 103/181/53 102/182/54 101/183/55
f 97/153/46 100/152/2 104/184/2 101/185/56
f 97/178/57 105/186/57 106/36/57 98/179/57
f 100/177/58 99/176/58 103/181/58 104/180/58
f 36/33/5 106/46/8 108/49/1 34/38/1
f 31/29/2 105/44/13 107/45/2 29/30/3
f 33/39/12 34/38/12 108/41/12 107/40/12
f 31/55/19 32/54/19 106/36/19 105/186/19
f 36/33/10 35/37/9 101/183/55 102/34/54
f 97/178/46 101/183/56 35/37/14 105/186/13
