# Blender v3.1.2 OBJ File: ''
# www.blender.org
mtllib DirBed3.mtl
o Plane.047_Plane.196
v -5.810589 0.078073 -2.262548
v -11.787372 0.078073 -2.192451
v -5.775655 0.078073 0.716074
v -11.752438 0.078073 0.786172
v 0.157550 0.078073 -2.327306
v -5.819232 0.078073 -2.257209
v 0.192485 0.078073 0.651316
v -5.784298 0.078073 0.721413
v 6.116224 0.078073 -2.394515
v 0.139443 0.078073 -2.324418
v 6.151159 0.078073 0.584107
v 0.174377 0.078073 0.654204
v 6.116224 0.078073 0.519083
v 0.139444 0.078073 0.589180
v 6.151159 0.078073 3.497705
v 0.174378 0.078073 3.567803
v 0.185033 -0.038278 3.722243
v 0.185033 0.373626 3.722243
v 0.185033 -0.038277 3.554038
v 0.185033 0.373627 3.554038
v 6.160837 -0.038277 3.568643
v 6.160837 0.373626 3.568643
v 6.160837 -0.038277 3.400437
v 6.160837 0.373627 3.400437
v 0.085540 -0.038277 3.554038
v 0.085540 -0.038278 3.722243
v 0.085540 0.373626 3.722243
v 0.085540 0.373627 3.554038
v 0.121439 0.021515 0.685908
v 0.121439 0.433419 0.685908
v 0.021945 0.021515 0.685908
v 0.021945 0.433419 0.685908
v 0.020606 0.432227 0.580326
v 0.120098 0.432227 0.580326
v 0.020606 0.020323 0.580326
v 0.120098 0.020323 0.580326
v -11.743543 0.021515 0.881036
v -11.743543 0.433419 0.881036
v -11.744884 0.432227 0.775453
v -11.744884 0.020323 0.775453
v -11.649000 0.433419 0.879514
v -11.649000 0.021515 0.879514
v -11.650341 0.020323 0.773932
v -11.650341 0.432227 0.773932
v -11.704653 0.020324 -2.183655
v -11.704653 0.432228 -2.183655
v -11.766386 0.020324 -2.183044
v -11.766386 0.432228 -2.183044
v -11.705491 0.432228 -2.250977
v -11.705491 0.020324 -2.250977
v -11.767225 0.020324 -2.250366
v -11.767225 0.432228 -2.250366
v 6.056206 0.020324 -2.391018
v 6.056206 0.432228 -2.391018
v 6.055368 0.432228 -2.458340
v 6.055368 0.020324 -2.458340
v 6.141973 0.020324 -2.392086
v 6.141973 0.432228 -2.392086
v 6.141134 0.432228 -2.459408
v 6.141134 0.020324 -2.459408
v 6.077555 -0.038277 3.400437
v 6.077555 0.373627 3.400438
v 6.077555 -0.038277 3.568643
v 6.077555 0.373626 3.568643
vt 0.000000 0.000000
vt 1.000000 0.000000
vt 1.000000 1.000000
vt 0.000000 1.000000
vt 0.000000 0.000000
vt 1.000000 0.000000
vt 1.000000 1.000000
vt 0.000000 1.000000
vt 0.000000 0.000000
vt 1.000000 0.000000
vt 1.000000 1.000000
vt 0.000000 1.000000
vt 0.000000 0.000000
vt 1.000000 0.000000
vt 1.000000 1.000000
vt 0.000000 1.000000
vt 0.125000 0.500000
vt 0.125000 0.750000
vt 0.125000 0.750000
vt 0.125000 0.500000
vt 0.625000 0.500000
vt 0.875000 0.750000
vt 0.875000 0.750000
vt 0.625000 0.497951
vt 0.375000 0.500000
vt 0.625000 0.750000
vt 0.375000 0.750000
vt 0.375000 0.752049
vt 0.625000 0.752049
vt 0.625000 1.000000
vt 0.375000 1.000000
vt 0.372951 0.500000
vt 0.372951 0.750000
vt 0.627049 0.500000
vt 0.875000 0.500000
vt 0.875000 0.750000
vt 0.627049 0.750000
vt 0.375000 0.000000
vt 0.625000 0.000000
vt 0.625000 0.250000
vt 0.375000 0.250000
vt 0.625000 0.250000
vt 0.375000 0.250000
vt 0.875000 0.750000
vt 0.875000 0.750000
vt 0.875000 0.750000
vt 0.875000 0.750000
vt 0.875000 0.500000
vt 0.875000 0.750000
vt 0.375000 1.000000
vt 0.625000 1.000000
vt 0.625000 1.000000
vt 0.375000 1.000000
vt 0.375000 1.000000
vt 0.625000 1.000000
vt 0.625000 1.000000
vt 0.375000 1.000000
vt 0.125000 0.750000
vt 0.125000 0.750000
vt 0.125000 0.750000
vt 0.125000 0.750000
vt 0.375000 1.000000
vt 0.625000 1.000000
vt 0.375000 0.000000
vt 0.625000 0.000000
vt 0.625000 0.000000
vt 0.375000 0.000000
vt 0.375000 0.000000
vt 0.625000 0.000000
vt 0.125000 0.750000
vt 0.125000 0.750000
vt 0.125000 0.750000
vt 0.125000 0.750000
vt 0.875000 0.750000
vt 0.875000 0.750000
vt 0.875000 0.750000
vt 0.875000 0.750000
vt 0.375000 0.000000
vt 0.625000 0.000000
vt 0.375000 0.000000
vt 0.375000 0.000000
vt 0.875000 0.750000
vt 0.625000 0.000000
vt 0.125000 0.750000
vt 0.125000 0.750000
vt 0.125000 0.750000
vt 0.125000 0.750000
vt 0.625000 0.000000
vt 0.375000 0.000000
vt 0.625000 0.000000
vt 0.875000 0.750000
vt 0.875000 0.750000
vt 0.875000 0.750000
vt 0.125000 0.750000
vt 0.125000 0.750000
vt 0.375000 0.000000
vt 0.625000 0.000000
vt 0.875000 0.750000
vt 0.875000 0.750000
vt 0.625000 0.000000
vt 0.375000 0.000000
vt 0.375000 0.000000
vt 0.625000 0.000000
vt 0.375000 0.000000
vt 0.625000 0.000000
vt 0.625000 0.000000
vt 0.375000 0.000000
vt 0.125000 0.750000
vt 0.125000 0.750000
vt 0.375000 0.497951
vn 0.0000 1.0000 0.0000
vn -0.0000 -1.0000 -0.0000
vn 0.0000 1.0000 0.0051
vn 0.0009 1.0000 0.0072
vn 0.0001 1.0000 0.0013
vn -0.0005 1.0000 0.0014
vn 1.0000 0.0000 -0.0016
vn 1.0000 0.0000 0.0000
vn 0.0261 -0.0000 0.9997
vn -0.0008 -1.0000 -0.0015
vn -0.0000 -1.0000 -0.0051
vn -1.0000 -0.0000 0.0000
vn 0.0000 0.0000 -1.0000
vn 0.0000 0.9999 -0.0113
vn -0.0021 0.9999 -0.0127
vn 0.0023 0.9999 -0.0113
vn 0.0000 -0.0000 1.0000
vn 0.0161 -0.0000 0.9999
vn 0.0025 -0.9999 0.0113
vn 0.0000 -0.9999 0.0113
vn -0.0019 -0.9999 0.0099
vn 0.9999 -0.0000 -0.0127
vn -0.9998 -0.0000 0.0207
vn -0.0000 0.9998 0.0186
vn 0.9998 0.0000 -0.0207
vn 0.0000 -0.9998 -0.0186
vn -1.0000 -0.0000 0.0100
vn -0.9999 -0.0000 0.0127
vn 0.0008 -0.9999 0.0105
vn 0.0002 -0.9999 0.0113
vn -0.0024 -1.0000 0.0031
vn -0.0002 0.9999 -0.0113
vn -0.0020 0.9999 -0.0099
vn 0.0024 1.0000 -0.0031
vn -0.0166 0.0000 -0.9999
vn 0.0166 -0.0000 0.9999
vn -0.0099 0.0000 -1.0000
vn 0.0006 -1.0000 -0.0014
vn -0.9999 0.0000 0.0125
vn -1.0000 0.0000 0.0099
vn 0.9998 0.0000 -0.0184
vn -0.0117 0.0000 -0.9999
vn 0.0117 0.0000 0.9999
vn 0.9999 0.0000 -0.0125
vn 1.0000 0.0000 -0.0079
vn 1.0000 0.0000 -0.0078
vn -0.0009 -1.0000 -0.0073
vn -1.0000 0.0000 0.0037
vn -0.0125 0.0000 -0.9999
vn -0.0261 0.0000 -0.9997
g Plane.047_Plane.196_Material.309
usemtl Material.309
s 1
f 1/1/1 2/2/1 4/3/1 3/4/1
f 5/5/1 6/6/1 8/7/1 7/8/1
f 9/9/1 10/10/1 12/11/1 11/12/1
f 13/13/1 14/14/1 16/15/1 15/16/1
g Plane.047_Plane.196_balkong.004
usemtl balkong.004
f 19/17/2 17/18/2 26/19/2 25/20/2
f 24/21/3 58/22/4 54/23/5 62/24/6
f 23/25/7 24/21/7 22/26/8 21/27/8
f 63/28/9 64/29/9 18/30/9 17/31/9
f 61/32/10 23/25/11 21/27/2 63/33/2
f 62/34/6 20/35/1 18/36/1 64/37/1
f 26/38/12 27/39/12 28/40/12 25/41/12
f 20/42/13 19/43/13 25/41/13 28/40/13
f 34/44/14 33/45/15 32/46/16 30/47/14
f 18/36/1 20/35/1 28/48/1 27/49/1
f 29/50/17 30/51/17 32/52/17 31/53/17
f 42/54/18 41/55/18 38/56/18 37/57/18
f 35/58/19 36/59/20 29/60/20 31/61/21
f 36/62/22 34/63/22 30/51/22 29/50/22
f 17/31/23 18/30/23 34/63/23 36/62/23
f 26/19/24 17/18/24 36/59/24 35/58/24
f 27/39/25 26/38/25 35/64/25 33/65/25
f 18/36/26 27/49/26 33/45/26 34/44/26
f 39/66/27 40/67/27 37/68/28 38/69/28
f 43/70/29 42/71/30 37/72/30 40/73/31
f 41/74/32 44/75/33 39/76/34 38/77/32
f 33/65/35 35/64/35 43/78/35 44/79/35
f 32/46/16 33/45/15 44/75/33 41/74/32
f 35/58/19 31/61/21 42/71/30 43/70/29
f 31/53/36 32/52/36 41/55/36 42/54/36
f 50/80/37 51/81/37 52/82/37 49/83/37
f 45/84/2 50/85/2 56/86/2 53/87/38
f 52/88/39 51/81/39 47/89/40 48/90/40
f 49/91/1 52/82/1 48/92/1 46/93/1
f 51/94/2 50/85/2 45/84/2 47/95/2
f 39/66/34 44/79/33 46/93/1 48/90/1
f 44/79/41 43/70/41 45/96/41 46/97/41
f 39/66/27 48/90/40 47/89/40 40/73/27
f 40/73/31 47/95/2 45/84/2 43/70/29
f 55/98/1 54/23/5 58/22/4 59/99/1
f 49/91/1 46/93/1 54/23/5 55/98/1
f 50/80/42 49/83/42 55/100/42 56/101/42
f 46/97/43 45/96/43 53/102/43 54/103/43
f 60/104/44 59/105/44 58/106/45 57/107/46
f 53/87/38 56/86/2 60/108/2 57/109/47
f 53/102/48 61/110/48 62/24/48 54/103/48
f 56/101/49 55/100/49 59/105/49 60/104/49
f 24/21/3 62/34/6 64/37/1 22/26/1
f 19/17/2 61/32/10 63/33/2 17/18/2
f 21/27/17 22/26/17 64/29/17 63/28/17
f 19/43/50 20/42/50 62/24/50 61/110/50
f 24/21/7 23/25/7 57/107/46 58/22/45
f 53/102/38 57/107/47 23/25/11 61/110/10
