# Blender v3.1.2 OBJ File: ''
# www.blender.org
mtllib DoubleWindow.mtl
o glass.007_Plane.035
v -0.023292 0.006213 0.000000
v -0.901335 0.006213 -0.000000
v -0.023291 1.806995 0.000000
v -0.901334 1.806995 -0.000000
v 0.004310 -0.022730 0.060983
v 0.004310 0.089328 0.060983
v -0.922881 -0.022730 0.060983
v -0.922881 0.089328 0.060983
v 0.004310 -0.022730 -0.027562
v 0.004310 0.089328 -0.027562
v -0.922881 -0.022730 -0.027562
v -0.922881 0.089328 -0.027562
v -0.868393 -0.022730 0.060983
v -0.868393 0.089328 0.060983
v -0.868393 -0.022730 -0.027562
v -0.868393 0.089328 -0.027562
v -0.052665 -0.022730 0.060983
v -0.052665 0.089328 -0.027562
v -0.052665 0.089328 0.060983
v -0.052665 -0.022730 -0.027562
v -0.868393 1.744151 0.060983
v -0.922881 1.744151 0.060983
v -0.922881 1.744151 -0.027562
v -0.052665 1.744151 -0.027562
v 0.004310 1.744151 -0.027562
v 0.004310 1.744151 0.060983
v -0.868393 1.744151 -0.027562
v -0.052665 1.744151 0.060983
v -0.868393 1.857025 0.060983
v -0.922881 1.857025 0.060983
v -0.922881 1.857025 -0.027562
v -0.052665 1.857024 -0.027562
v 0.004310 1.857024 -0.027562
v 0.004310 1.857024 0.060983
v -0.868393 1.857025 -0.027562
v -0.052665 1.857024 0.060983
v 0.897262 0.006212 0.000000
v 0.019220 0.006213 -0.000000
v 0.897263 1.806995 0.000000
v 0.019220 1.806995 -0.000000
v 0.924864 -0.022730 0.060983
v 0.924864 0.089327 0.060983
v -0.002327 -0.022730 0.060983
v -0.002327 0.089328 0.060983
v 0.924864 -0.022730 -0.027562
v 0.924864 0.089327 -0.027562
v -0.002327 -0.022730 -0.027562
v -0.002327 0.089328 -0.027562
v 0.052161 -0.022730 0.060983
v 0.052161 0.089328 0.060983
v 0.052161 -0.022730 -0.027562
v 0.052161 0.089328 -0.027562
v 0.867889 -0.022730 0.060983
v 0.867889 0.089328 -0.027562
v 0.867889 0.089328 0.060983
v 0.867889 -0.022730 -0.027562
v 0.052161 1.744151 0.060983
v -0.002327 1.744151 0.060983
v -0.002327 1.744151 -0.027562
v 0.867889 1.744151 -0.027562
v 0.924864 1.744151 -0.027562
v 0.924864 1.744151 0.060983
v 0.052161 1.744151 -0.027562
v 0.867889 1.744151 0.060983
v 0.052161 1.857024 0.060983
v -0.002327 1.857024 0.060983
v -0.002327 1.857024 -0.027562
v 0.867889 1.857024 -0.027562
v 0.924864 1.857024 -0.027562
v 0.924864 1.857024 0.060983
v 0.052161 1.857024 -0.027562
v 0.867889 1.857024 0.060983
vt 0.375000 0.235308
vt 0.625000 0.235308
vt 0.625000 0.250000
vt 0.375000 0.250000
vt 0.625000 0.500000
vt 0.375000 0.500000
vt 0.375000 0.734638
vt 0.625000 0.734638
vt 0.625000 0.750000
vt 0.375000 0.750000
vt 0.625000 1.000000
vt 0.375000 1.000000
vt 0.125000 0.734638
vt 0.125000 0.750000
vt 0.625000 0.235308
vt 0.625000 0.250000
vt 0.625000 0.514692
vt 0.625000 0.500000
vt 0.625000 0.514692
vt 0.125000 0.500000
vt 0.375000 0.514692
vt 0.125000 0.514692
vt 0.375000 0.015362
vt 0.625000 0.015362
vt 0.375000 0.000000
vt 0.625000 0.000000
vt 0.875000 0.514692
vt 0.875000 0.734638
vt 0.875000 0.734638
vt 0.625000 0.015362
vt 0.625000 0.235308
vt 0.875000 0.514692
vt 0.625000 0.734638
vt 0.625000 0.000000
vt 0.625000 0.015362
vt 0.625000 0.750000
vt 0.625000 1.000000
vt 0.625000 0.734638
vt 0.875000 0.734638
vt 0.875000 0.750000
vt 0.625000 0.750000
vt 0.625000 0.500000
vt 0.875000 0.500000
vt 0.875000 0.514692
vt 0.625000 0.514692
vt 0.625000 1.000000
vt 0.625000 0.250000
vt 0.625000 0.000000
vt 0.375000 0.235308
vt 0.625000 0.235308
vt 0.625000 0.250000
vt 0.375000 0.250000
vt 0.625000 0.500000
vt 0.375000 0.500000
vt 0.375000 0.734638
vt 0.625000 0.734638
vt 0.625000 0.750000
vt 0.375000 0.750000
vt 0.625000 1.000000
vt 0.375000 1.000000
vt 0.125000 0.734638
vt 0.125000 0.750000
vt 0.625000 0.235308
vt 0.625000 0.250000
vt 0.625000 0.514692
vt 0.625000 0.500000
vt 0.625000 0.514692
vt 0.125000 0.500000
vt 0.375000 0.514692
vt 0.125000 0.514692
vt 0.375000 0.015362
vt 0.625000 0.015362
vt 0.375000 0.000000
vt 0.625000 0.000000
vt 0.875000 0.514692
vt 0.875000 0.734638
vt 0.875000 0.734638
vt 0.625000 0.015362
vt 0.625000 0.235308
vt 0.875000 0.514692
vt 0.625000 0.734638
vt 0.625000 0.000000
vt 0.625000 0.015362
vt 0.625000 0.750000
vt 0.625000 1.000000
vt 0.625000 0.734638
vt 0.875000 0.734638
vt 0.875000 0.750000
vt 0.625000 0.750000
vt 0.625000 0.500000
vt 0.875000 0.500000
vt 0.875000 0.514692
vt 0.625000 0.514692
vt 0.625000 1.000000
vt 0.625000 0.250000
vt 0.625000 0.000000
vt 0.000000 0.000000
vt 1.000000 0.000000
vt 1.000000 1.000000
vt 0.000000 1.000000
vt 0.000000 0.000000
vt 1.000000 0.000000
vt 1.000000 1.000000
vt 0.000000 1.000000
vn -0.0000 0.0000 1.0000
vn -1.0000 0.0000 0.0000
vn 0.0000 -0.0000 -1.0000
vn 1.0000 0.0000 0.0000
vn 0.0000 -1.0000 0.0000
vn 0.0000 1.0000 0.0000
g glass.007_Plane.035_WindowEdge
usemtl WindowEdge
s 1
f 13/1/1 14/2/1 8/3/1 7/4/1
f 7/4/2 8/3/2 12/5/2 11/6/2
f 20/7/3 18/8/3 10/9/3 9/10/3
f 9/10/4 10/9/4 6/11/4 5/12/4
f 17/13/5 20/7/5 9/10/5 5/14/5
f 8/3/1 14/2/1 21/15/1 22/16/1
f 16/17/3 12/5/3 23/18/3 27/19/3
f 7/20/5 11/6/5 15/21/5 13/22/5
f 11/6/3 12/5/3 16/17/3 15/21/3
f 17/23/1 19/24/1 14/2/1 13/1/1
f 5/25/1 6/26/1 19/24/1 17/23/1
f 16/17/6 14/27/6 19/28/6 18/8/6
f 13/22/5 15/21/5 20/7/5 17/13/5
f 15/21/3 16/17/3 18/8/3 20/7/3
f 28/29/1 36/30/1 29/31/1 21/32/1
f 27/19/5 24/33/5 28/29/5 21/32/5
f 19/24/1 6/26/1 26/34/1 28/35/1
f 6/11/4 10/9/4 25/36/4 26/37/4
f 14/27/4 16/17/4 27/19/4 21/32/4
f 12/5/2 8/3/2 22/16/2 23/18/2
f 18/8/2 19/28/2 28/29/2 24/33/2
f 10/9/3 18/8/3 24/33/3 25/36/3
f 32/38/6 36/39/6 34/40/6 33/41/6
f 31/42/6 30/43/6 29/44/6 35/45/6
f 26/37/4 25/36/4 33/41/4 34/46/4
f 23/18/2 22/16/2 30/47/2 31/42/2
f 28/35/1 26/34/1 34/48/1 36/30/1
f 27/19/3 23/18/3 31/42/3 35/45/3
f 25/36/3 24/33/3 32/38/3 33/41/3
f 22/16/1 21/15/1 29/31/1 30/47/1
f 35/45/6 29/31/6 36/39/6 32/38/6
f 32/38/3 24/33/3 27/19/3 35/45/3
f 49/49/1 50/50/1 44/51/1 43/52/1
f 43/52/2 44/51/2 48/53/2 47/54/2
f 56/55/3 54/56/3 46/57/3 45/58/3
f 45/58/4 46/57/4 42/59/4 41/60/4
f 53/61/5 56/55/5 45/58/5 41/62/5
f 44/51/1 50/50/1 57/63/1 58/64/1
f 52/65/3 48/53/3 59/66/3 63/67/3
f 43/68/5 47/54/5 51/69/5 49/70/5
f 47/54/3 48/53/3 52/65/3 51/69/3
f 53/71/1 55/72/1 50/50/1 49/49/1
f 41/73/1 42/74/1 55/72/1 53/71/1
f 52/65/6 50/75/6 55/76/6 54/56/6
f 49/70/5 51/69/5 56/55/5 53/61/5
f 51/69/3 52/65/3 54/56/3 56/55/3
f 64/77/1 72/78/1 65/79/1 57/80/1
f 63/67/5 60/81/5 64/77/5 57/80/5
f 55/72/1 42/74/1 62/82/1 64/83/1
f 42/59/4 46/57/4 61/84/4 62/85/4
f 50/75/4 52/65/4 63/67/4 57/80/4
f 48/53/2 44/51/2 58/64/2 59/66/2
f 54/56/2 55/76/2 64/77/2 60/81/2
f 46/57/3 54/56/3 60/81/3 61/84/3
f 68/86/6 72/87/6 70/88/6 69/89/6
f 67/90/6 66/91/6 65/92/6 71/93/6
f 62/85/4 61/84/4 69/89/4 70/94/4
f 59/66/2 58/64/2 66/95/2 67/90/2
f 64/83/1 62/82/1 70/96/1 72/78/1
f 63/67/3 59/66/3 67/90/3 71/93/3
f 61/84/3 60/81/3 68/86/3 69/89/3
f 58/64/1 57/63/1 65/79/1 66/95/1
f 71/93/6 65/79/6 72/87/6 68/86/6
f 68/86/3 60/81/3 63/67/3 71/93/3
g glass.007_Plane.035_Glass
usemtl Glass
f 1/97/3 2/98/3 4/99/3 3/100/3
f 37/101/3 38/102/3 40/103/3 39/104/3
