# Blender v3.1.2 OBJ File: ''
# www.blender.org
mtllib Sign.mtl
o CoreMaterialBuild.277_Cube.499
v 0.301905 -0.044090 -0.013226
v 0.302280 -0.044090 0.004907
v -0.360284 -0.044001 0.000500
v 0.301951 0.304898 -0.013226
v 0.302327 0.304898 0.004907
v -0.360237 0.304986 0.000500
v -0.359861 0.304986 0.018633
v -0.359908 -0.044001 0.018633
v -0.359584 0.304986 0.032037
v -0.359630 -0.044001 0.032037
v -0.312262 0.280038 0.031056
v 0.302605 0.304898 0.018311
v 0.302558 -0.044090 0.018311
v 0.255276 0.279963 0.019292
v 0.254999 0.279963 0.005888
v 0.255236 -0.019142 0.019292
v -0.312302 -0.019066 0.031056
v 0.254959 -0.019142 0.005888
v -0.312580 -0.019066 0.017652
v -0.312540 0.280038 0.017652
v -0.249187 0.035630 0.015573
v -0.248906 0.035630 0.029092
v -0.279521 0.035634 0.016202
v -0.249182 0.072631 0.015573
v -0.166690 0.035619 0.013862
v -0.166409 0.035619 0.027381
v -0.166685 0.072620 0.013862
v -0.166404 0.072620 0.027381
v -0.248901 0.072631 0.029092
v -0.279236 0.072635 0.029722
v -0.248896 0.109632 0.029092
v -0.279231 0.109636 0.029722
v -0.248891 0.146634 0.029092
v -0.249177 0.109632 0.015573
v -0.166400 0.109621 0.027381
v -0.166395 0.146623 0.027381
v -0.166680 0.109621 0.013862
v -0.166675 0.146623 0.013862
v -0.249172 0.146634 0.015573
v -0.279507 0.146638 0.016202
v -0.249167 0.183635 0.015573
v -0.248887 0.183635 0.029092
v -0.166670 0.183624 0.013862
v -0.249162 0.220636 0.015573
v -0.279502 0.183639 0.016202
v -0.279221 0.183639 0.029722
v -0.279497 0.220640 0.016202
v -0.279216 0.220640 0.029722
v -0.248882 0.220636 0.029092
v -0.166385 0.220625 0.027381
v -0.166665 0.220625 0.013862
v -0.166390 0.183624 0.027381
v -0.279226 0.146638 0.029722
v -0.279512 0.109636 0.016202
v -0.279517 0.072635 0.016202
v -0.279241 0.035634 0.029722
v -0.104213 0.017814 0.010281
v -0.103823 0.017814 0.029076
v -0.141546 0.035233 0.011055
v -0.076239 0.077796 0.009701
v -0.075849 0.077796 0.028495
v -0.098959 0.126548 0.010173
v -0.098570 0.126548 0.028967
v -0.141156 0.035233 0.029850
v -0.017048 0.204715 0.008474
v -0.016658 0.204715 0.027268
v -0.054381 0.222134 0.009248
v -0.053506 0.126542 0.009230
v -0.053116 0.126542 0.028024
v -0.076226 0.175293 0.009701
v -0.075836 0.175293 0.028495
v -0.053991 0.222134 0.028043
v -0.011507 0.036428 0.008359
v -0.011118 0.036428 0.027153
v -0.048845 0.019020 0.009133
v -0.098622 0.223352 0.010166
v -0.098233 0.223352 0.028960
v -0.135960 0.205944 0.010940
v -0.135570 0.205944 0.029734
v -0.048455 0.019020 0.027927
v 0.052728 0.034725 0.007403
v 0.053080 0.034725 0.024387
v 0.015501 0.034629 0.008175
v 0.052247 0.221092 0.007414
v 0.052599 0.221092 0.024398
v 0.015021 0.220995 0.008186
v 0.015373 0.220995 0.025170
v 0.015853 0.034629 0.025159
v 0.179391 0.024516 0.000684
v 0.179739 0.024516 0.017460
v 0.142622 0.024421 0.001447
v 0.178937 0.200538 0.000695
v 0.179285 0.200538 0.017469
v 0.142168 0.200443 0.001457
v 0.142516 0.200443 0.018232
v 0.142970 0.024421 0.018222
v 0.080030 0.200581 0.008399
v 0.080333 0.200581 0.023029
v 0.079916 0.222758 0.008401
v 0.240536 0.201406 0.005070
v 0.240839 0.201406 0.019701
v 0.240422 0.223583 0.005073
v 0.240725 0.223583 0.019703
v 0.080219 0.222758 0.023032
vt 0.375000 0.750000
vt 0.625000 0.750000
vt 0.625000 1.000000
vt 0.375000 1.000000
vt 0.375000 0.000000
vt 0.625000 0.000000
vt 0.625000 0.250000
vt 0.375000 0.250000
vt 0.125000 0.500000
vt 0.375000 0.500000
vt 0.125000 0.750000
vt 0.625000 0.500000
vt 0.625000 0.250000
vt 0.625000 0.500000
vt 0.625000 0.750000
vt 0.857133 0.517867
vt 0.642867 0.517867
vt 0.875000 0.500000
vt 0.642867 0.732133
vt 0.625000 1.000000
vt 0.857133 0.732133
vt 0.875000 0.750000
vt 0.642867 0.732133
vt 0.857133 0.732133
vt 0.642867 0.517867
vt 0.857133 0.517867
vt 0.625000 0.000000
vt 0.625000 0.000000
vt 0.375000 0.000000
vt 0.375000 0.000000
vt 0.625000 0.000000
vt 0.625000 0.250000
vt 0.375000 0.250000
vt 0.125000 0.500000
vt 0.175000 0.500000
vt 0.175000 0.750000
vt 0.125000 0.750000
vt 0.175000 0.750000
vt 0.125000 0.750000
vt 0.375000 0.950000
vt 0.625000 0.950000
vt 0.625000 1.000000
vt 0.375000 1.000000
vt 0.375000 0.950000
vt 0.625000 0.950000
vt 0.825000 0.750000
vt 0.875000 0.750000
vt 0.875000 0.750000
vt 0.825000 0.750000
vt 0.825000 0.500000
vt 0.875000 0.500000
vt 0.775000 0.500000
vt 0.775000 0.750000
vt 0.375000 0.900000
vt 0.625000 0.900000
vt 0.725000 0.500000
vt 0.725000 0.750000
vt 0.775000 0.750000
vt 0.725000 0.750000
vt 0.375000 0.900000
vt 0.625000 0.900000
vt 0.375000 0.850000
vt 0.625000 0.850000
vt 0.225000 0.750000
vt 0.275000 0.750000
vt 0.275000 0.750000
vt 0.225000 0.750000
vt 0.375000 0.850000
vt 0.625000 0.850000
vt 0.275000 0.500000
vt 0.325000 0.500000
vt 0.325000 0.750000
vt 0.225000 0.500000
vt 0.375000 0.800000
vt 0.625000 0.800000
vt 0.375000 0.800000
vt 0.625000 0.800000
vt 0.375000 0.750000
vt 0.375000 0.750000
vt 0.325000 0.750000
vt 0.375000 0.500000
vt 0.375000 0.400000
vt 0.625000 0.400000
vt 0.625000 0.450000
vt 0.375000 0.450000
vt 0.625000 0.500000
vt 0.625000 0.750000
vt 0.675000 0.500000
vt 0.675000 0.750000
vt 0.625000 0.750000
vt 0.675000 0.750000
vt 0.375000 0.350000
vt 0.625000 0.350000
vt 0.375000 0.300000
vt 0.625000 0.300000
vt 0.625000 1.000000
vt 0.375000 1.000000
vt 0.375000 0.919768
vt 0.625000 0.919768
vt 0.375000 0.000000
vt 0.625000 0.000000
vt 0.625000 0.250000
vt 0.375000 0.250000
vt 0.205232 0.750000
vt 0.125000 0.750000
vt 0.125000 0.500000
vt 0.247144 0.500000
vt 0.625000 0.328611
vt 0.375000 0.328611
vt 0.375000 0.393813
vt 0.625000 0.393813
vt 0.625000 0.372144
vt 0.375000 0.372144
vt 0.752856 0.500000
vt 0.875000 0.500000
vt 0.875000 0.750000
vt 0.794768 0.750000
vt 0.375000 0.854565
vt 0.375000 0.750000
vt 0.625000 0.750000
vt 0.625000 0.854565
vt 0.375000 0.500000
vt 0.625000 0.500000
vt 0.312346 0.500000
vt 0.270435 0.750000
vt 0.375000 0.814276
vt 0.375000 0.879478
vt 0.625000 0.879478
vt 0.625000 0.814276
vt 0.625000 0.437346
vt 0.375000 0.437346
vt 0.729565 0.750000
vt 0.687654 0.500000
vt 0.375000 0.750000
vt 0.625000 0.750000
vt 0.625000 1.000000
vt 0.375000 1.000000
vt 0.375000 0.000000
vt 0.625000 0.000000
vt 0.625000 0.250000
vt 0.375000 0.250000
vt 0.125000 0.500000
vt 0.375000 0.500000
vt 0.125000 0.750000
vt 0.625000 0.500000
vt 0.875000 0.500000
vt 0.875000 0.750000
vt 0.375000 0.750000
vt 0.625000 0.750000
vt 0.625000 1.000000
vt 0.375000 1.000000
vt 0.375000 0.000000
vt 0.625000 0.000000
vt 0.625000 0.250000
vt 0.375000 0.250000
vt 0.125000 0.500000
vt 0.375000 0.500000
vt 0.125000 0.750000
vt 0.625000 0.500000
vt 0.875000 0.500000
vt 0.875000 0.750000
vt 0.375000 0.750000
vt 0.625000 0.750000
vt 0.625000 1.000000
vt 0.375000 1.000000
vt 0.375000 0.000000
vt 0.625000 0.000000
vt 0.625000 0.250000
vt 0.375000 0.250000
vt 0.125000 0.500000
vt 0.375000 0.500000
vt 0.125000 0.750000
vt 0.625000 0.500000
vt 0.875000 0.500000
vt 0.875000 0.750000
vt 0.375000 0.750000
vt 0.625000 0.750000
vt 0.625000 1.000000
vt 0.375000 1.000000
vt 0.375000 0.000000
vt 0.625000 0.000000
vt 0.625000 0.250000
vt 0.375000 0.250000
vt 0.125000 0.500000
vt 0.375000 0.500000
vt 0.125000 0.750000
vt 0.625000 0.500000
vt 0.875000 0.500000
vt 0.875000 0.750000
vn 0.9998 -0.0001 -0.0207
vn -0.0001 -1.0000 0.0000
vn -0.0207 0.0000 -0.9998
vn 0.0001 1.0000 -0.0000
vn -0.9998 0.0001 0.0207
vn 0.0207 -0.0000 0.9998
vn 0.9061 -0.4227 -0.0188
vn -0.4227 -0.9063 0.0088
vn 0.9062 0.4225 -0.0188
vn -0.9061 0.4227 0.0188
vn 0.4226 0.9063 -0.0088
vn -0.9062 -0.4225 0.0188
vn 0.4224 -0.9064 -0.0088
vn -0.4224 0.9064 0.0088
vn 0.9998 0.0026 -0.0207
vn 0.0026 -1.0000 -0.0001
vn -0.0026 1.0000 0.0001
vn -0.9998 -0.0026 0.0207
vn 0.0051 -1.0000 -0.0001
vn -0.9998 -0.0051 0.0207
vn 0.9998 0.0051 -0.0207
vn -0.0051 1.0000 0.0001
g CoreMaterialBuild.277_Cube.499_SignPlate
usemtl SignPlate
s 1
f 4/1/1 5/2/1 2/3/1 1/4/1
f 1/5/2 2/6/2 8/7/2 3/8/2
f 3/9/3 6/10/3 4/1/3 1/11/3
f 6/10/4 7/12/4 5/2/4 4/1/4
f 3/8/5 8/7/5 7/12/5 6/10/5
f 7/12/5 8/7/5 10/13/5 9/14/5
f 5/2/4 7/12/4 9/14/4 12/15/4
f 17/16/6 11/17/6 9/14/6 10/18/6
f 11/17/6 14/19/6 12/15/6 9/14/6
f 2/3/1 5/2/1 12/15/1 13/20/1
f 14/19/6 16/21/6 13/22/6 12/15/6
f 15/23/5 18/24/5 16/21/5 14/19/5
f 20/25/2 15/23/2 14/19/2 11/17/2
f 16/21/6 17/16/6 10/18/6 13/22/6
f 18/24/4 19/26/4 17/16/4 16/21/4
f 20/25/6 19/26/6 18/24/6 15/23/6
f 19/26/1 20/25/1 11/17/1 17/16/1
f 8/7/2 2/6/2 13/27/2 10/13/2
g CoreMaterialBuild.277_Cube.499_SignText
usemtl SignText
f 22/28/2 21/29/2 25/30/2 26/31/2
f 21/29/2 22/28/2 56/32/2 23/33/2
f 23/34/3 55/35/3 24/36/3 21/37/3
f 21/37/3 24/36/3 27/38/3 25/39/3
f 27/40/1 28/41/1 26/42/1 25/43/1
f 24/44/4 29/45/4 28/41/4 27/40/4
f 29/46/6 22/47/6 26/48/6 28/49/6
f 30/50/6 56/51/6 22/47/6 29/46/6
f 32/52/6 30/50/6 29/46/6 31/53/6
f 34/54/1 31/55/1 29/45/1 24/44/1
f 53/56/6 32/52/6 31/53/6 33/57/6
f 33/57/6 31/53/6 35/58/6 36/59/6
f 31/55/2 34/54/2 37/60/2 35/61/2
f 38/62/1 36/63/1 35/61/1 37/60/1
f 34/64/3 39/65/3 38/66/3 37/67/3
f 39/68/4 33/69/4 36/63/4 38/62/4
f 40/70/3 45/71/3 41/72/3 39/65/3
f 54/73/3 40/70/3 39/65/3 34/64/3
f 41/74/1 42/75/1 33/69/1 39/68/1
f 42/75/2 41/74/2 43/76/2 52/77/2
f 41/72/3 44/78/3 51/79/3 43/80/3
f 45/71/3 47/81/3 44/78/3 41/72/3
f 40/82/5 53/83/5 46/84/5 45/85/5
f 45/85/5 46/84/5 48/86/5 47/81/5
f 47/81/4 48/86/4 49/87/4 44/78/4
f 48/86/6 46/88/6 42/89/6 49/87/6
f 44/78/4 49/87/4 50/90/4 51/79/4
f 49/87/6 42/89/6 52/91/6 50/90/6
f 51/79/1 50/90/1 52/77/1 43/76/1
f 46/88/6 53/56/6 33/57/6 42/89/6
f 54/92/5 32/93/5 53/83/5 40/82/5
f 55/94/5 30/95/5 32/93/5 54/92/5
f 55/35/3 54/73/3 34/64/3 24/36/3
f 23/33/5 56/32/5 30/95/5 55/94/5
f 58/96/7 57/97/7 60/98/7 61/99/7
f 57/100/8 58/101/8 64/102/8 59/103/8
f 60/104/3 57/105/3 59/106/3 62/107/3
f 61/108/9 60/109/9 62/110/9 63/111/9
f 59/103/10 64/102/10 63/112/10 62/113/10
f 63/114/6 64/115/6 58/116/6 61/117/6
f 68/118/7 65/119/7 66/120/7 69/121/7
f 67/122/11 72/123/11 66/120/11 65/119/11
f 70/124/3 67/122/3 65/119/3 68/125/3
f 70/126/12 68/127/12 69/128/12 71/129/12
f 71/130/10 72/123/10 67/122/10 70/131/10
f 69/132/6 66/120/6 72/123/6 71/133/6
f 76/134/9 77/135/9 74/136/9 73/137/9
f 73/138/13 74/139/13 80/140/13 75/141/13
f 75/142/3 78/143/3 76/134/3 73/144/3
f 78/143/14 79/145/14 77/135/14 76/134/14
f 75/141/12 80/140/12 79/145/12 78/143/12
f 79/145/6 80/146/6 74/147/6 77/135/6
f 84/148/15 85/149/15 82/150/15 81/151/15
f 81/152/16 82/153/16 88/154/16 83/155/16
f 83/156/3 86/157/3 84/148/3 81/158/3
f 86/157/17 87/159/17 85/149/17 84/148/17
f 83/155/18 88/154/18 87/159/18 86/157/18
f 87/159/6 88/160/6 82/161/6 85/149/6
f 92/162/15 93/163/15 90/164/15 89/165/15
f 89/166/16 90/167/16 96/168/16 91/169/16
f 91/170/3 94/171/3 92/162/3 89/172/3
f 94/171/17 95/173/17 93/163/17 92/162/17
f 91/169/18 96/168/18 95/173/18 94/171/18
f 95/173/6 96/174/6 90/175/6 93/163/6
f 100/176/19 101/177/19 98/178/19 97/179/19
f 97/180/20 98/181/20 104/182/20 99/183/20
f 99/184/3 102/185/3 100/176/3 97/186/3
f 102/185/21 103/187/21 101/177/21 100/176/21
f 99/183/22 104/182/22 103/187/22 102/185/22
f 103/187/6 104/188/6 98/189/6 101/177/6
