# Blender v3.1.2 OBJ File: ''
# www.blender.org
mtllib Window.mtl
o CoreMaterialBuild.040_Cube.262
v -0.066302 1.273333 0.544270
v -0.066302 1.273333 0.478340
v 0.061862 1.273333 0.544270
v -0.066302 1.196703 0.544270
v 0.061862 1.196703 0.544270
v -0.066302 1.196703 0.478340
v -0.066302 0.099549 0.544270
v -0.066302 0.099549 0.478339
v -0.066302 0.026261 0.544270
v 0.061862 0.099549 0.544270
v 0.061862 0.026261 0.544270
v 0.061862 0.099549 0.478339
v 0.061862 0.026261 0.478339
v 0.061862 0.099548 -0.495294
v 0.061862 1.196703 0.478340
v 0.061862 1.273333 0.478340
v 0.061862 1.196703 -0.495294
v -0.066302 1.196703 -0.495294
v 0.061862 1.273333 -0.495294
v 0.061862 1.196703 -0.561705
v -0.066302 1.196703 -0.561705
v 0.061862 1.273333 -0.561705
v 0.061862 0.099548 -0.561705
v -0.066301 0.099548 -0.561705
v 0.061862 0.026261 -0.561705
v -0.066301 0.026261 -0.561705
v 0.061862 0.026261 -0.495294
v -0.066301 0.026261 -0.495294
v -0.066301 0.099548 -0.495294
v -0.066302 0.026261 0.478339
v -0.066302 1.273333 -0.561705
v -0.066302 1.273333 -0.495294
v 0.021968 1.236209 0.527242
v 0.021969 0.055242 0.527241
v 0.021969 1.236209 -0.532269
v 0.021969 0.055242 -0.532269
vt 0.000000 0.000000
vt 1.000000 0.000000
vt 1.000000 1.000000
vt 0.000000 1.000000
vt 0.375000 0.000000
vt 0.625000 0.000000
vt 0.625000 0.015362
vt 0.375000 0.015362
vt 0.375000 0.750000
vt 0.625000 0.750000
vt 0.625000 1.000000
vt 0.375000 1.000000
vt 0.125000 0.734638
vt 0.375000 0.734638
vt 0.125000 0.750000
vt 0.125000 0.514692
vt 0.375000 0.514692
vt 0.625000 0.235308
vt 0.375000 0.235308
vt 0.625000 0.250000
vt 0.375000 0.250000
vt 0.125000 0.500000
vt 0.375000 0.500000
vt 0.625000 0.500000
vt 0.625000 0.514692
vt 0.625000 0.734638
vt 0.625000 0.500000
vt 0.625000 0.514692
vt 0.875000 0.514692
vt 0.875000 0.514692
vt 0.875000 0.734638
vt 0.625000 0.734638
vt 0.625000 0.750000
vt 0.875000 0.734638
vt 0.625000 0.734638
vt 0.625000 0.514692
vt 0.625000 0.750000
vt 0.625000 0.235308
vt 0.875000 0.734638
vt 0.875000 0.750000
vt 0.625000 0.500000
vt 0.875000 0.500000
vt 0.875000 0.514692
vt 0.625000 0.250000
vt 0.625000 0.250000
vt 0.625000 0.235308
vt 0.625000 0.015362
vt 0.625000 1.000000
vt 0.625000 1.000000
vt 0.625000 0.015362
vt 0.625000 0.000000
vt 0.625000 0.000000
vn 1.0000 0.0000 0.0000
vn -1.0000 0.0000 0.0000
vn 0.0000 1.0000 0.0000
vn -0.0000 -0.0000 1.0000
vn 0.0000 0.0000 -1.0000
vn 0.0000 -1.0000 0.0000
g CoreMaterialBuild.040_Cube.262_Glass
usemtl Glass
s 1
f 33/1/1 34/2/1 36/3/1 35/4/1
g CoreMaterialBuild.040_Cube.262_WindowFrame
usemtl WindowFrame
f 1/5/2 2/6/2 6/7/2 4/8/2
f 3/9/3 16/10/3 2/11/3 1/12/3
f 4/13/4 5/14/4 3/9/4 1/15/4
f 7/16/4 10/17/4 5/14/4 4/13/4
f 4/8/2 6/7/2 8/18/2 7/19/2
f 7/19/2 8/18/2 30/20/2 9/21/2
f 9/22/4 11/23/4 10/17/4 7/16/4
f 11/23/1 13/24/1 12/25/1 10/17/1
f 10/17/1 12/25/1 15/26/1 5/14/1
f 12/25/1 13/24/1 27/27/1 14/28/1
f 8/29/3 12/25/3 14/28/3 29/30/3
f 12/25/5 8/29/5 6/31/5 15/26/5
f 5/14/1 15/26/1 16/10/1 3/9/1
f 16/10/1 15/26/1 17/32/1 19/33/1
f 15/26/6 6/31/6 18/34/6 17/32/6
f 20/35/1 17/32/1 14/28/1 23/36/1
f 14/28/4 17/32/4 18/34/4 29/30/4
f 19/33/1 17/32/1 20/35/1 22/37/1
f 23/36/5 24/38/5 21/39/5 20/35/5
f 20/35/5 21/39/5 31/40/5 22/37/5
f 25/41/5 26/42/5 24/43/5 23/36/5
f 14/28/1 27/27/1 25/41/1 23/36/1
f 27/27/6 28/44/6 26/45/6 25/41/6
f 13/24/6 30/20/6 28/44/6 27/27/6
f 28/44/2 29/46/2 24/38/2 26/45/2
f 30/20/2 8/18/2 29/46/2 28/44/2
f 9/21/6 30/20/6 13/24/6 11/23/6
f 18/34/2 21/47/2 24/38/2 29/30/2
f 32/48/3 19/33/3 22/37/3 31/49/3
f 18/50/2 32/51/2 31/52/2 21/47/2
f 2/11/3 16/10/3 19/33/3 32/48/3
f 6/7/2 2/6/2 32/51/2 18/50/2
